<?xml version="1.0" encoding="utf-8"?>
<!-- Generator: Adobe Illustrator 21.1.0, SVG Export Plug-In . SVG Version: 6.00 Build 0)  -->
<svg version="1.1" xmlns="http://www.w3.org/2000/svg" xmlns:xlink="http://www.w3.org/1999/xlink" x="0px" y="0px" viewBox="0 0 512 512" style="enable-background:new 0 0 512 512;" xml:space="preserve"  fill="#00adef">
	<path d="M256,207.5c-26.7,0-48.5,21.7-48.5,48.5c0,26.7,21.7,48.5,48.5,48.5s48.5-21.7,48.5-48.5
		C304.5,229.3,282.7,207.5,256,207.5z"/>
	<path d="M256,3C116.3,3,3,116.3,3,256s113.3,253,253,253s253-113.3,253-253S395.7,3,256,3z M399.4,320.3
		c0,43.7-35.5,79.2-79.2,79.2H191.7c-43.7,0-79.2-35.5-79.2-79.2V191.7c0-43.7,35.5-79.2,79.2-79.2h128.6
		c43.7,0,79.2,35.5,79.2,79.2V320.3z"/>
	<path d="M374,191.7c0-29.6-24.1-53.7-53.7-53.7H191.7c-29.6,0-53.7,24.1-53.7,53.7v128.6c0,29.6,24.1,53.7,53.7,53.7h128.6
		c29.6,0,53.7-24.1,53.7-53.7h0V191.7z M256,329.9c-40.8,0-73.9-33.2-73.9-73.9c0-40.8,33.2-73.9,73.9-73.9s73.9,33.2,73.9,73.9
		C329.9,296.8,296.8,329.9,256,329.9z M346.2,192.4c-3.5,3.5-8.3,5.5-13.2,5.5c-4.9,0-9.7-2-13.2-5.5c-3.5-3.5-5.5-8.3-5.5-13.2
		c0-4.9,2-9.7,5.5-13.2c3.5-3.5,8.3-5.5,13.2-5.5c4.9,0,9.7,2,13.2,5.5c3.5,3.5,5.5,8.3,5.5,13.2
		C351.7,184.1,349.7,188.9,346.2,192.4z"/>
</svg>